<?xml version="1.0" standalone="no"?>
<!DOCTYPE svg PUBLIC "-//W3C//DTD SVG 20010904//EN"
 "http://www.w3.org/TR/2001/REC-SVG-20010904/DTD/svg10.dtd">
<svg version="1.0" xmlns="http://www.w3.org/2000/svg"
 width="450.000000pt" height="721.000000pt" viewBox="0 0 450.000000 721.000000"
 preserveAspectRatio="xMidYMid meet">

<g transform="translate(0.000000,721.000000) scale(0.100000,-0.100000)"
fill="#000000" stroke="none">
<path d="M2392 7193 c-24 -2 -58 -13 -75 -24 -18 -10 -45 -19 -62 -19 -16 0
-43 -7 -59 -15 -15 -8 -37 -15 -47 -15 -10 0 -45 -25 -77 -55 -33 -30 -64 -55
-70 -55 -5 0 -20 -21 -33 -47 -21 -42 -24 -60 -22 -140 3 -90 2 -93 -27 -127
-17 -18 -30 -39 -30 -45 0 -7 -8 -23 -17 -38 -36 -54 -66 -173 -44 -173 8 0
60 70 71 97 7 17 110 123 119 123 4 0 18 11 31 25 13 14 27 25 32 25 5 0 27
12 51 27 101 64 295 90 431 57 39 -9 75 -20 81 -25 5 -5 16 -9 25 -9 32 0 170
-166 170 -204 0 -8 10 -32 23 -53 21 -37 22 -47 22 -284 0 -211 -2 -250 -17
-280 -9 -19 -25 -70 -34 -114 -10 -44 -28 -96 -40 -115 -12 -19 -25 -53 -29
-75 -4 -21 -15 -51 -26 -66 -10 -15 -19 -33 -19 -41 0 -7 -9 -24 -20 -38 -11
-14 -20 -31 -20 -39 0 -7 -27 -42 -60 -78 -33 -35 -60 -72 -60 -81 0 -23 -351
-372 -374 -372 -9 0 -54 -36 -100 -80 -46 -44 -90 -80 -99 -80 -8 0 -39 -22
-69 -48 -67 -61 -112 -92 -131 -92 -9 0 -22 -6 -29 -12 -26 -24 -113 -94 -148
-118 -19 -14 -52 -42 -74 -62 -21 -21 -42 -38 -47 -38 -5 0 -9 -7 -9 -16 0 -9
-117 -135 -260 -279 -143 -144 -260 -270 -260 -280 0 -9 -22 -42 -50 -72 -27
-30 -50 -59 -50 -65 0 -5 -13 -29 -30 -53 -16 -24 -30 -50 -30 -57 0 -7 -9
-24 -20 -38 -11 -14 -20 -32 -20 -40 0 -8 -9 -26 -20 -40 -11 -14 -20 -31 -20
-38 0 -7 -6 -23 -14 -35 -8 -12 -17 -40 -21 -62 -4 -21 -15 -51 -26 -66 -10
-15 -19 -33 -19 -41 0 -8 -6 -20 -12 -26 -8 -8 -15 -54 -19 -116 -4 -72 -10
-110 -22 -126 -24 -35 -25 -439 -1 -485 8 -16 18 -61 21 -100 3 -38 11 -79 17
-90 7 -11 18 -42 25 -70 15 -60 45 -125 83 -182 15 -23 28 -44 28 -48 0 -3 23
-41 51 -83 62 -93 271 -308 354 -364 33 -23 69 -49 80 -58 26 -23 92 -60 108
-60 7 -1 28 -14 47 -30 19 -17 44 -30 57 -30 12 0 25 -4 28 -10 3 -5 17 -10
30 -10 13 0 27 -4 30 -10 3 -5 13 -10 22 -10 8 0 27 -9 42 -20 31 -21 142 -53
245 -70 38 -6 78 -17 90 -25 15 -11 51 -15 133 -15 l113 0 0 294 c0 324 1 318
-62 331 -18 4 -37 11 -43 15 -23 18 -87 50 -99 50 -23 0 -124 57 -173 97 -84
69 -210 193 -224 221 -7 15 -21 39 -31 54 -32 48 -78 140 -78 157 0 9 -9 35
-21 56 -16 31 -23 68 -29 166 -10 172 1 396 22 429 9 14 20 46 23 73 4 26 11
50 16 53 5 3 9 12 9 21 0 8 13 43 29 77 16 33 41 86 55 116 14 30 39 78 55
106 16 28 32 61 36 75 4 13 25 45 46 70 22 26 39 52 39 59 0 6 18 32 40 57 22
25 40 52 40 61 0 8 36 52 80 99 44 46 80 91 80 100 0 9 36 53 80 99 44 46 80
91 80 99 0 9 63 81 140 160 77 79 140 152 140 161 0 9 43 61 96 116 52 55 100
112 107 126 6 15 26 45 44 66 18 22 33 45 33 51 0 7 27 43 60 80 33 37 60 74
60 82 0 8 18 35 40 60 22 25 40 51 40 57 0 6 16 30 34 54 19 24 38 56 41 72 4
17 11 32 16 35 5 4 9 13 9 22 0 8 11 28 24 43 13 16 26 47 30 71 4 23 16 54
26 69 11 16 20 34 20 42 0 8 5 19 11 25 5 5 14 41 20 78 5 38 14 74 21 82 28
34 63 271 75 513 8 159 -28 405 -67 460 -11 15 -20 33 -20 40 0 38 -164 224
-250 283 -25 17 -47 33 -50 36 -56 64 -306 119 -468 104z m-307 -273 c0 -18
-6 -26 -23 -28 -27 -4 -40 22 -22 44 19 22 45 13 45 -16z"/>
<path d="M2301 6723 l-22 -18 1 -765 c0 -421 0 -771 0 -777 0 -29 30 -9 97 65
96 105 223 270 223 291 0 4 13 26 28 47 16 22 32 53 36 69 6 23 10 715 7 977
-1 42 -48 98 -84 98 -12 0 -31 7 -41 15 -31 23 -216 21 -245 -2z"/>
<path d="M2658 4659 c-10 -5 -42 -43 -72 -83 -30 -40 -80 -102 -113 -137 -32
-35 -76 -86 -98 -114 -22 -27 -52 -62 -67 -77 l-28 -28 0 -267 c-1 -146 3
-270 7 -274 5 -5 34 4 65 20 60 29 154 60 251 82 32 7 60 15 62 19 3 4 13 872
10 870 0 0 -8 -5 -17 -11z"/>
<path d="M1335 4420 c-3 -5 -15 -10 -25 -10 -19 0 -73 -23 -204 -87 -37 -18
-73 -33 -78 -33 -5 0 -54 -29 -109 -65 -54 -36 -101 -65 -104 -65 -12 0 -124
-88 -209 -165 -243 -219 -379 -405 -491 -674 -54 -129 -83 -253 -105 -437 -21
-180 15 -417 100 -657 42 -120 168 -330 266 -446 63 -74 187 -206 208 -220 11
-9 35 -28 52 -43 89 -81 283 -208 420 -275 65 -32 121 -61 122 -65 2 -5 11 -8
20 -8 8 0 34 -9 56 -19 23 -11 55 -23 71 -26 29 -6 29 -6 10 10 -11 10 -33 23
-50 31 -34 16 -36 17 -166 102 -107 70 -170 124 -295 252 -95 98 -114 121
-175 210 -24 36 -47 67 -50 70 -7 6 -60 101 -95 170 -40 77 -94 213 -94 235 0
12 -4 25 -9 31 -16 15 -62 222 -73 324 -14 130 -3 464 18 555 25 107 45 177
59 210 7 17 21 55 30 85 20 63 109 247 131 271 8 8 14 21 14 27 0 6 12 25 27
42 15 18 34 45 42 60 44 80 228 276 344 369 86 69 232 166 287 193 32 15 82
58 67 58 -3 0 -9 -4 -12 -10z"/>
<path d="M3170 4405 c7 -8 17 -15 23 -15 10 0 45 -21 180 -108 92 -59 218
-162 275 -224 26 -28 58 -60 70 -72 62 -56 237 -308 260 -374 6 -18 20 -45 32
-59 11 -14 20 -30 20 -35 0 -5 10 -33 23 -61 38 -85 88 -238 98 -297 28 -170
40 -333 35 -465 -5 -130 -32 -320 -55 -390 -6 -16 -18 -55 -27 -85 -29 -97
-105 -269 -162 -363 -82 -137 -219 -304 -346 -419 -61 -57 -123 -111 -136
-120 -14 -10 -44 -32 -68 -49 -52 -36 -175 -109 -217 -127 -26 -12 -27 -15
-12 -23 13 -8 32 -3 75 19 31 17 86 43 122 58 36 16 81 38 100 50 19 11 71 40
115 63 195 103 505 379 619 552 17 24 38 53 47 64 31 36 155 294 179 370 7 22
17 51 23 65 6 14 14 50 19 80 5 30 13 84 19 120 62 382 -61 841 -306 1144 -14
17 -44 54 -66 81 -193 239 -509 464 -856 609 -73 30 -102 34 -83 11z"/>
<path d="M2570 3690 c-41 -10 -88 -25 -105 -33 -130 -62 -171 -85 -247 -142
-85 -63 -138 -119 -138 -145 0 -7 -24 -38 -53 -69 -42 -44 -55 -65 -61 -99 -4
-25 -19 -60 -36 -80 -23 -29 -32 -54 -41 -117 -18 -124 -23 -350 -9 -430 37
-226 57 -291 102 -331 28 -26 33 -10 20 67 -19 112 -16 294 7 354 11 27 27 79
36 115 9 36 21 73 26 82 5 10 9 23 9 30 0 7 9 24 20 38 11 14 20 31 20 39 0 8
21 37 46 65 183 203 278 261 478 296 74 12 203 13 210 1 3 -5 23 -11 43 -14
52 -7 99 -26 156 -64 26 -18 50 -33 53 -33 8 0 108 -103 145 -150 31 -38 64
-101 99 -185 56 -137 63 -431 12 -546 -11 -24 -25 -60 -32 -79 -8 -19 -19 -42
-27 -51 -7 -8 -13 -19 -13 -23 0 -42 -259 -286 -303 -286 -5 0 -21 -8 -35 -19
-15 -10 -38 -21 -52 -25 -14 -4 -36 -12 -50 -18 -45 -19 -65 -27 -87 -33 -23
-6 -23 -7 -24 -213 0 -114 -1 -240 -2 -281 -2 -57 2 -79 14 -95 l17 -21 41 22
c22 12 62 25 88 29 44 6 116 32 153 55 8 5 26 14 40 19 14 6 34 15 44 21 11 6
40 23 65 36 42 23 75 46 185 129 22 16 47 34 56 39 45 28 211 228 260 315 30
52 58 96 62 98 5 2 8 8 8 14 0 11 21 60 57 133 40 80 63 235 63 425 0 161 -17
307 -38 333 -5 6 -15 38 -22 69 -6 32 -16 60 -21 63 -5 4 -9 15 -9 25 0 18
-30 80 -50 105 -5 6 -22 36 -39 68 -47 90 -222 289 -279 318 -15 7 -39 21 -54
31 -44 30 -139 78 -154 78 -8 0 -31 11 -52 24 -20 14 -76 34 -123 45 -117 28
-367 29 -479 1z"/>
<path d="M2595 3253 c-11 -2 -34 -11 -52 -19 -17 -8 -36 -14 -42 -14 -23 0
-118 -67 -169 -120 l-54 -55 1 -1071 c1 -590 -2 -1079 -5 -1088 -4 -10 -18
-16 -38 -16 -17 0 -53 -6 -81 -14 -138 -37 -243 -120 -305 -241 -32 -63 -34
-72 -34 -173 -1 -103 0 -110 35 -183 72 -151 197 -239 359 -254 207 -19 421
147 451 349 10 66 13 2881 4 2897 -6 9 -34 10 -70 2z"/>
</g>
</svg>
